<svg id="visual" viewBox="0 0 960 540" width="960" height="540" xmlns="http://www.w3.org/2000/svg" xmlns:xlink="http://www.w3.org/1999/xlink" version="1.1"><rect x="0" y="0" width="960" height="540" fill="#ffffff"></rect><path d="M0 441L22.8 443.7C45.7 446.3 91.3 451.7 137 451.8C182.7 452 228.3 447 274 435.8C319.7 424.7 365.3 407.3 411.2 389.8C457 372.3 503 354.7 548.8 367.8C594.7 381 640.3 425 686 434C731.7 443 777.3 417 823 407.3C868.7 397.7 914.3 404.3 937.2 407.7L960 411L960 541L937.2 541C914.3 541 868.7 541 823 541C777.3 541 731.7 541 686 541C640.3 541 594.7 541 548.8 541C503 541 457 541 411.2 541C365.3 541 319.7 541 274 541C228.3 541 182.7 541 137 541C91.3 541 45.7 541 22.8 541L0 541Z" fill="#df3821" stroke-linecap="round" stroke-linejoin="miter"></path></svg>